<?xml version="1.0" encoding="iso-8859-1"?>
<!-- Generator: Adobe Illustrator 19.0.0, SVG Export Plug-In . SVG Version: 6.00 Build 0)  -->
<svg version="1.1" id="Capa_1" xmlns="http://www.w3.org/2000/svg" xmlns:xlink="http://www.w3.org/1999/xlink"
	 width="80" height="60" viewBox="0 0 480.008 480.008" style="enable-background:new 0 0 480.008 480.008;" xml:space="preserve">
<g>
	<g>
		<g>
			<path d="M456.004,96H74.012l-8.456-74.624C64.242,9.192,53.939-0.034,41.684,0H8.004c-4.418,0-8,3.582-8,8s3.582,8,8,8h33.68
				c4.104-0.024,7.561,3.063,8,7.144l44.8,395.48c1.313,12.172,11.597,21.393,23.84,21.376h10.4
				c4.392,26.112,29.12,43.72,55.232,39.328c20.151-3.389,35.939-19.177,39.328-39.328h49.44
				c4.418,26.139,29.19,43.747,55.329,39.329c26.139-4.418,43.747-29.19,39.329-55.329c-4.418-26.139-29.19-43.747-55.329-39.329
				c-20.143,3.405-35.924,19.186-39.329,39.329h-49.44c-4.392-26.112-29.12-43.72-55.232-39.328
				c-20.151,3.389-35.939,19.177-39.328,39.328h-10.4c-4.104,0.024-7.561-3.063-8-7.144L104.804,368h275.128
				c10.705-0.036,20.104-7.125,23.08-17.408l59.296-207.536c10.411-2.834,17.65-12.267,17.696-23.056l0,0
				C480.004,106.745,469.259,96,456.004,96z M320.004,400c17.673,0,32,14.327,32,32c0,17.673-14.327,32-32,32
				c-17.673,0-32-14.327-32-32C288.004,414.327,302.331,400,320.004,400z M176.004,400c17.673,0,32,14.327,32,32
				c0,17.673-14.327,32-32,32s-32-14.327-32-32C144.004,414.327,158.331,400,176.004,400z M387.628,346.192
				c-0.98,3.438-4.121,5.809-7.696,5.808H103.004l-23.56-208h365.952L387.628,346.192z M456.004,128h-378.4l-1.8-16h380.2
				c4.418,0,8,3.582,8,8S460.422,128,456.004,128z"/>
			<path d="M120.004,336h200c4.418,0,8-3.582,8-8s-3.582-8-8-8h-200c-4.418,0-8,3.582-8,8S115.586,336,120.004,336z"/>
			<path d="M352.004,336h16c4.418,0,8-3.582,8-8s-3.582-8-8-8h-16c-4.418,0-8,3.582-8,8S347.586,336,352.004,336z"/>
		</g>
	</g>
</g>
<g>
</g>
<g>
</g>
<g>
</g>
<g>
</g>
<g>
</g>
<g>
</g>
<g>
</g>
<g>
</g>
<g>
</g>
<g>
</g>
<g>
</g>
<g>
</g>
<g>
</g>
<g>
</g>
<g>
</g>
</svg>
